<svg id="Layer_1" data-name="Layer 1" xmlns="http://www.w3.org/2000/svg" viewBox="0 0 64.84 65">
	<defs>
		<style>.cls-1{fill:#47b4e7;}.cls-1,.cls-2,.cls-3,.cls-4,.cls-6{stroke:#fff;stroke-miterlimit:10;}.cls-2{fill:#dfdb1f;}.cls-3{fill:#231f20;}.cls-4{fill:none;}.cls-5,.cls-6{fill:#fff;}</style>
	</defs>
	<path class="cls-1" d="M63.84,32A32,32,0,0,1,61,45.21a32.4,32.4,0,0,1-4.53,7.24,32,32,0,0,1-10.28,8.18l-.29.14-.41.2-.5.23,0,0-.27.12c-.43.18-.87.37-1.33.55l-.82.3c-.45.16-.91.31-1.37.45l-.79.22A31.8,31.8,0,0,1,31.92,64c-.61,0-1.22,0-1.83,0A31.81,31.81,0,0,1,7.37,52.45a31.17,31.17,0,0,1-3.49-5.16h0a.61.61,0,0,1-.07-.14c-.45-.82-.85-1.67-1.23-2.53-.18-.43-.35-.86-.52-1.29A31.94,31.94,0,1,1,63.84,32Z" transform="translate(0.5 0.5)"/>
	<path class="cls-2" d="M61,45.21a32.4,32.4,0,0,1-4.53,7.24,32,32,0,0,1-10.28,8.18l-.29.14-.41.2-.5.23,0,0-.27.12c-.43.18-.87.37-1.33.55l-.82.3c-.45.16-.91.31-1.37.45l-.79.22A31.8,31.8,0,0,1,31.92,64c-.61,0-1.22,0-1.83,0A31.81,31.81,0,0,1,7.37,52.45a31.17,31.17,0,0,1-3.49-5.16h0a.61.61,0,0,1-.07-.14c-.45-.82-.85-1.67-1.23-2.53-.18-.43-.35-.86-.52-1.29.07-.63.13-1.15.19-1.58h0c.23-1.51.47-1.88.71-1.61.51.56,1.06,3.93,1.66,5.7,1.09-1.72,2.32-1.09,3.67-3.72.12-.23.24-.49.36-.77,0,.23.09.46.13.68,1.11,5.57,2.31,5,3.57.65h0c.28-1,.56-2.11.85-3.42q.06-.27.12-.57c.07-.34.15-.69.22-1,.46-1,.93-.91,1.41-.47s.86,1.08,1.31,1.59.78.74,1.17.57h0a.71.71,0,0,0,.24-.17c.33,2,.65,1.51,1-.48q0-.27.09-.57c.13-.88.26-2,.39-3.26a.17.17,0,0,0,.12,0,1,1,0,0,0,.38-.36c.31-.42.64-.94,1,0,0,0,0,.08.05.13s.2-.13.3-.33h0a11.32,11.32,0,0,0,.45-1.14c.26-.68.52-1.25.78-.8.12-.4.23-.79.35-1.13s.14-.4.21-.57c.2-.48.41-.77.61-.67s.27.29.39.72.1.51.14.71a1.36,1.36,0,0,1,0,.17c.25,1,.51,1,.76.94s.44,0,.66.59c0,.41.08.78.11,1.12h0c.38,3.56.76,3.2,1.15,1,.12-.68.24-1.54.37-2.52.44-1.06.89,3.48,1.33,3.14.11-.07.21-.42.32-1.16.09-.55.18-1,.27-1.48.05-.23.09-.44.14-.63s.12-.48.18-.67a1.67,1.67,0,0,1,.4-.77c.09-.06.19,0,.29.13v0a.41.41,0,0,1,.05.09,5.19,5.19,0,0,1,.34,1.17c.34,1.94.68,2.31,1,1.8a7.86,7.86,0,0,0,.67-1.9c.05,0,.11-.08.17-.2s0-.07.05-.1c.49-1.25,1-5.81,1.47-1.35.57-1.51,1.13-1.14,1.68-.06a2.61,2.61,0,0,1,.12-.28h0c.51-1,1,.62,1.53.79.55.74,1.09-1.35,1.63,1.81.18,1.29.36-1.1.53-2.19.18,1.32.36-3.85.54-1A12.43,12.43,0,0,1,40,28.17c.19-.77.38-.57.57.48.07.41.15.94.22,1.59.35-.63.7.64,1,2,.17-2.45.35-.69.52-.33.17,4.91.34,4.33.51,3.4.34,2.57.67-2.69,1-.73.09-.62.19-1.18.28-1.57.22-.93.44-.93.66,1.26l0,.28,0,.31,0-.4h0c0-.6.08-1.09.13-1.46.19-1.63.38-1.25.57-.53.24,3.87.49,2.07.73,1.31.48-1.12,1-.15,1.42,2,.47-1.41.93-.58,1.38.26.46.22.9.23,1.34,1.62.15,1.35.31,2.66.45,3.84v.07c.72,5.66,1.41,8.59,2.09.43.81-6,1.59-1.87,2.34-.63.75,4,1.46-2.58,2.13,1.79.67,4.95,1.31,5.84,1.9,2.7S60.49,36.56,61,45.21Z" transform="translate(0.5 0.5)"/>
	<path class="cls-3" d="M56.16,16.29c-.67.85-1.34.54-2.34,1.34l-.15.13c-.83.73-.46,1-1.7,2.5-.59.72-1.17,1.36-1.48,1.7h0l-.22.23c-.66.69-.94.91-1,1.36a1.1,1.1,0,0,0,0,.25s0,.05,0,.08h0a4.77,4.77,0,0,0,.58,1.48c.45,1.06-.26,1.68.33,2.53l.05.07.08.1a0,0,0,0,1,0,0s.05,0,.05.05a3.49,3.49,0,0,1,.58,1c.41,1,.21,1.52.69,2.41.4.73.52.54.94,1.4a6,6,0,0,1,.61,2.41A6.91,6.91,0,0,1,53.07,37a7.77,7.77,0,0,1-.76,2.24,15.73,15.73,0,0,1-.82,1.39c-.67,1-.91,1.2-1.39,2a15.28,15.28,0,0,0-.71,1.42c-.41.89-.73,1.64-.93,2.13-.12.27-.2.46-.22.52-.61,1.48-1.47,2.79-2.41,4.69a26.31,26.31,0,0,0-1.33,3.55,2.85,2.85,0,0,0-.14,1,3.17,3.17,0,0,0,.14.77,3.82,3.82,0,0,0,.28.67c.12.29.22.55.41,1.08s.36,1.09.44,1.37.2.7.27,1c-.78.37-1.63.75-2.55,1.11-.76.29-1.5.54-2.19.76-.44-1-.8-1.79-1.07-2.4-.33-.77-.54-1.28-.76-1.9a9.65,9.65,0,0,1-.57-2,8.05,8.05,0,0,1-.08-.81,17.58,17.58,0,0,1,.06-2c0-.21,0-.32,0-.46,0-.53.11-1.6.3-2.7.13-.69.25-1.16.48-2,.39-1.41.51-1.51.87-2.81.07-.26.31-1.17.54-2.38a13.91,13.91,0,0,0,.29-1.88,8.55,8.55,0,0,0-.34-2.78,7,7,0,0,0-.8-1.73,5.83,5.83,0,0,0-1.3-1.53,16.74,16.74,0,0,0-3-1.45c-.25-.11-.5-.2-.88-.37s-.58-.3-1.06-.51c-.31-.14-.32-.12-.7-.29s-.58-.25-.89-.41a7.12,7.12,0,0,0-1.41-.6h-.07c-.09,0-.27,0-.47-.11a5.08,5.08,0,0,1-.75-.33c-.17-.08-.79-.37-1.5-.63s-.79-.25-3.14-.94c-.82-.24-1.08-.33-1.32-.42a6.08,6.08,0,0,1-1.18-.57,3,3,0,0,1-1.1-1,2.65,2.65,0,0,1-.17-1.82,3.45,3.45,0,0,1,1-1.95,2.73,2.73,0,0,1,1.08-.69c.68-.22,1.07,0,2.23.19s1.23,0,3.17.31a13.15,13.15,0,0,1,1.66.32,3.64,3.64,0,0,1,1.74.69,2.84,2.84,0,0,0,.76.63,2.41,2.41,0,0,0,.46.19,8.92,8.92,0,0,0,1.3.11c.79,0,1.1,0,1.55,0,1.5.06,2.14.43,2.49.12.58-.51-.73-2.08-.52-4.4a6,6,0,0,1,.57-2.05c-.11-.06-.28-.16-.49-.26-.43-.22-.65-.3-1-.48,0,0-.36-.17-.83-.44-1.26-.72-1.93-3.26-1.93-3.26-.52-2-1.27-4.84.34-6.36a4.62,4.62,0,0,1,3.4-.91,4.37,4.37,0,0,1,2.85,1c1.49,1.4.7,3.54,1.79,4a.76.76,0,0,0,.59,0,7.68,7.68,0,0,1,2.36-.92c1.65-.22,1.91.6,3.85.57s2-.82,3.63-.68c.29,0,2.74.27,3.39,2A3,3,0,0,1,56.16,16.29Z" transform="translate(0.5 0.5)"/>
	<path class="cls-4" d="M36.88,12c.17-.17.33-.3.44-.4s.25-.21.39-.31a1.28,1.28,0,0,1,.41-.22.91.91,0,0,1,.27,0,.8.8,0,0,1,.31.1" transform="translate(0.5 0.5)"/>
	<path class="cls-4" d="M34.46,13.43a2,2,0,0,1,.22-.25l.17-.16a2,2,0,0,1,.25-.19.69.69,0,0,1,.23-.12.9.9,0,0,1,.23-.08h.2a1.88,1.88,0,0,1,.22,0" transform="translate(0.5 0.5)"/>
	<path class="cls-5" d="M34.87,13.79a.62.62,0,0,1,.13-.43,1.3,1.3,0,0,1,.22-.28c.09-.06.16-.15.28-.15s.24,0,.5.29c.06.37,0,.47-.07.58s-.19.09-.29.13a1.36,1.36,0,0,1-.35,0A.64.64,0,0,1,34.87,13.79Z" transform="translate(0.5 0.5)"/>
	<path class="cls-5" d="M37.31,12.51A.94.94,0,0,1,37.5,12a.93.93,0,0,1,.29-.3,1,1,0,0,1,.35-.17c.14,0,.23-.11.52.19l.08.16c.06.41-.09.41-.17.53a1.14,1.14,0,0,1-.35.17.91.91,0,0,1-.41,0A.93.93,0,0,1,37.31,12.51Z" transform="translate(0.5 0.5)"/>
	<path class="cls-6" d="M42.93,19.05a2.86,2.86,0,0,0,.6-.38,2.22,2.22,0,0,0,.46-.49,2.59,2.59,0,0,0,.26-.53,4,4,0,0,0,.22-.88c.06-.45,0-.69.08-.71s.16.39.55.72a1.7,1.7,0,0,0,.55.3,2.13,2.13,0,0,0,.85.1,2.74,2.74,0,0,0,.72-.13,1.37,1.37,0,0,0,.64-.31c.18-.18.18-.31.31-.57a2.6,2.6,0,0,1,.82-.88,10,10,0,0,1,1-.54l1.2-.59,1.53-.73L53,13.3a2.32,2.32,0,0,1,1.2.2,2,2,0,0,1,.83.68,2.11,2.11,0,0,1,.29,1.45,2.73,2.73,0,0,1-.45.37,2.31,2.31,0,0,0-.4.27,1.62,1.62,0,0,0-.28.4,1.94,1.94,0,0,0-.18.42c-.07.19-.13.37-.19.55a3.91,3.91,0,0,1-.21.79,4.49,4.49,0,0,1-.49.92c-.19.28-.21.26-.81,1-.34.42-.4.5-.6.72a2.8,2.8,0,0,1-.69.64,2.07,2.07,0,0,1-.53.24h0a1.09,1.09,0,0,1-.26,0,1.82,1.82,0,0,1-1.31-.44,3.24,3.24,0,0,1-.71-1.17,6,6,0,0,1-.42-1.23,5.15,5.15,0,0,1-.08-1.49h0a3.32,3.32,0,0,1,.1-.47c.08-.3.18-.58.21-.66" transform="translate(0.5 0.5)"/>
	<path class="cls-4" d="M49.23,23.8a5.31,5.31,0,0,1-.09,1.65,6.26,6.26,0,0,1-.23.66,5.38,5.38,0,0,1-.29.55" transform="translate(0.5 0.5)"/>
	<path class="cls-4" d="M38.27,25.82a11.14,11.14,0,0,0,1.6-.08c1-.13,1.29-.31,2.19-.46a10.28,10.28,0,0,1,2.81-.09,7.48,7.48,0,0,1,2.35.62,8.48,8.48,0,0,1,1.4.85,12.53,12.53,0,0,1,1.68,1.43" transform="translate(0.5 0.5)"/>
	<path class="cls-4" d="M38.67,19.25A13.23,13.23,0,0,1,39.29,18c.09-.16.27-.43.62-1a4.29,4.29,0,0,1,.34-.46c.1-.13.17-.18.25-.28a4.69,4.69,0,0,0,.76-1.08,3.13,3.13,0,0,0,.15-.38c.19-.47.21-.56.29-.73a2.89,2.89,0,0,1,.4-.61,3.46,3.46,0,0,1,1.28-.94" transform="translate(0.5 0.5)"/>
	<path class="cls-4" d="M36.34,18.07a2.59,2.59,0,0,0,1.75,0,2.7,2.7,0,0,0,1.08-.76c.65-.74.48-1.26,1-1.85a2.47,2.47,0,0,1,1.2-.66" transform="translate(0.5 0.5)"/>
	<path class="cls-3" d="M34.79,50.62a7,7,0,0,1-.37,1.26,3.38,3.38,0,0,1-.49.95,2.66,2.66,0,0,1-1.34.76,3.66,3.66,0,0,1-1.7.24,2.13,2.13,0,0,1-1-.39,9.83,9.83,0,0,1-2.58-2.59c-.6-.91-1-1.51-1.23-1.89-.35-.55-.42-.68-.42-.68-.45-.9-.65-.81-1-1.31-1-1.54-1-2.56-1.28-2.55-.48,0-.89,2.14-1,2.66-.15.8-.21,1.11-.37,1.74l0,.14c0,.19-.1.39-.16.59-.23.88-.37.82-.58,1.64a14,14,0,0,0-.23,2.58c0,.57,0,1.41,0,2.44s.08,1.84.13,2.59.11,2,.15,3.42a32,32,0,0,1-14-9.77,31.17,31.17,0,0,1-3.49-5.16h0a.61.61,0,0,1-.07-.14c-.45-.82-.85-1.67-1.23-2.53-.08-1.18-.23-2.2-.33-2.87h0v-.05c-.09-.57-.16-1-.23-1.43s-.13-1-.16-1.63a11.73,11.73,0,0,1,.06-2.06c0-.19.06-.47.16-1a15.56,15.56,0,0,1,.8-3.17,9.17,9.17,0,0,1,1.14-2,9.64,9.64,0,0,1,1.42-1.47,6.62,6.62,0,0,1,1.34-1,6.36,6.36,0,0,1,2.48-.67,8,8,0,0,1,1.14,0c.86,0,1.45.07,1.93-.42a2.57,2.57,0,0,0,.46-1.48,3.13,3.13,0,0,0,0-.56c0-.24,0-.58,0-1.16,0-1.48,0-1,0-1.71,0-.13,0-.25,0-.36,0-1.48-.07-1.44-.07-2A8.19,8.19,0,0,1,12.93,17a5.12,5.12,0,0,1,1.33-2.13,6.33,6.33,0,0,1,4.84-1.52l.4,0a7.29,7.29,0,0,1,6.14,5,8.9,8.9,0,0,1,.12,4.45c0,.14-.05.29-.08.43a16,16,0,0,1-.92,3.11,15.29,15.29,0,0,1-.63,1.45l-.21.56h0l-.28.72,0,.12a16.11,16.11,0,0,1,4.55,2.54l.41.34.46.43a12.37,12.37,0,0,1,2,2.51.75.75,0,0,1,.07.12,9.55,9.55,0,0,1,.47.89l.06.12h0c.07.15.13.29.19.44s.26.51.41.86c.28.62.48,1.14.64,1.58.29.77.66,1.82,1.11,3.29.35,1.15.53,1.72.61,2.15a25.72,25.72,0,0,1,.25,2.65c0,.74.07,1.2.07,1.71V49A7.67,7.67,0,0,1,34.79,50.62Z" transform="translate(0.5 0.5)"/>
	<path class="cls-3" d="M23.59,29.28,22.92,31l-.23.6a5.17,5.17,0,0,1-.55,1c-.28.4-.43.49-.76,1s-.26.52-.43.66a1.72,1.72,0,0,1-1.57.17c-.51-.18-.5-.42-1.24-.95s-.76-.35-1.43-.79a9.61,9.61,0,0,1-1.46-1.31A12.08,12.08,0,0,1,14,29.79a2.26,2.26,0,0,1-.31-.69,2.08,2.08,0,0,1-.06-.66" transform="translate(0.5 0.5)"/>
	<path class="cls-4" d="M16.76,24.71a2,2,0,0,1,1.09-.35,2.75,2.75,0,0,1,1.25.46,6.82,6.82,0,0,1,.91.57" transform="translate(0.5 0.5)"/>
	<path class="cls-4" d="M22.51,25.33c.29-.27.55-.48.76-.64.52-.38.81-.58,1.15-.53a1,1,0,0,1,.6.37" transform="translate(0.5 0.5)"/>
	<path class="cls-4" d="M27.94,46.05c.07-.42.15-.91.21-1.48.09-.8.12-1.41.12-1.61,0-.85,0-1.18,0-2,0-.55,0-1.34,0-2.32V33.87" transform="translate(0.5 0.5)"/>
	<path class="cls-3" d="M13.81,22a1.31,1.31,0,0,0-1.32-.48,1.19,1.19,0,0,0-.72.59c-.17.34-.07.67.07,1.17a2.32,2.32,0,0,0,.51,1c.17.19.27.22.61.54s.35.37.45.48" transform="translate(0.5 0.5)"/>
	<path class="cls-4" d="M8.45,33.15a1.4,1.4,0,0,0,.46.57c.26.2.54.26,1.39.32.36,0,.83.05,1.37.06a9.27,9.27,0,0,1,1.63.39,9.39,9.39,0,0,1,2.82,1.56l-3.8,3.55c-.23.21-.43.37-.57.48l-.6.45c-.21.17-.24.21-.39.32l-.49.33-.77.51a2.85,2.85,0,0,1-.86.36l-.42.07-.33,0a1.27,1.27,0,0,1-.34,0,1,1,0,0,1-.27,0,4.28,4.28,0,0,1-.56-.24l-.56-.28" transform="translate(0.5 0.5)"/>
	<path class="cls-6" d="M13.42,34a10.54,10.54,0,0,1,1.71-.07,11.44,11.44,0,0,1,2.28.32,11.86,11.86,0,0,1,3.45,1.49,3.87,3.87,0,0,1,1.34,1.2,3.55,3.55,0,0,1,.51,1.57,4.94,4.94,0,0,1-.14,1.94A5.8,5.8,0,0,1,22,41.8a2.94,2.94,0,0,1-.81,1.1,2.73,2.73,0,0,1-2,.26A6,6,0,0,1,17,42.4a9.16,9.16,0,0,1-1.41-1,3.23,3.23,0,0,1-.71-.7c-.28-.43-.15-.66-.42-.94s-.3-.19-.95-.43a6.72,6.72,0,0,1-1-.44,2.71,2.71,0,0,1-1-1.37A4,4,0,0,1,11.18,36a2,2,0,0,1,.23-1.15,1.7,1.7,0,0,1,.7-.59A3.28,3.28,0,0,1,13.42,34Z" transform="translate(0.5 0.5)"/>
	<path class="cls-6" d="M31.27,36.68a2.73,2.73,0,0,0,.35-.47,1.2,1.2,0,0,0,.18-.43,1.78,1.78,0,0,0-.26-1c-.18-.41-.25-.51-.34-.71a6.54,6.54,0,0,1-.34-1.32,7.2,7.2,0,0,0-.66-1.6,7.2,7.2,0,0,0-.8-1.28A7,7,0,0,0,28,28.62,4.86,4.86,0,0,0,27,28a3.4,3.4,0,0,0-3.22.54c-.28.22-1.23.94-1.13,1.86a1.37,1.37,0,0,0,.56,1c.24.11.42,0,.77.22a1.27,1.27,0,0,1,.43.35c.23.28.18.51.31,1a3.87,3.87,0,0,0,.46,1,4.47,4.47,0,0,0,.74.93c.49.47.65.37,1,.74a3.65,3.65,0,0,1,.51,1.17c.44,1.22.43,1.27.54,1.34.63.47,1.93-.33,2.53-.71a3.37,3.37,0,0,0,.76-.64" transform="translate(0.5 0.5)"/>
	<path class="cls-5" d="M17.1,25.76a1.17,1.17,0,0,1,.59-.26,2.5,2.5,0,0,1,.58-.12.81.81,0,0,1,.56.13,3.62,3.62,0,0,1,.53.45,2.67,2.67,0,0,1-.6.35.81.81,0,0,1-.57,0,2.17,2.17,0,0,1-.56-.22A1.22,1.22,0,0,1,17.1,25.76Z" transform="translate(0.5 0.5)"/>
	<path class="cls-5" d="M22.43,26.1a1.13,1.13,0,0,1,.65-.78,1.47,1.47,0,0,1,.47,0,1,1,0,0,1,.56.2,1,1,0,0,1-.29.51,1,1,0,0,1-1.38.14Z" transform="translate(0.5 0.5)"/>
</svg>