<svg xmlns="http://www.w3.org/2000/svg" viewBox="0 0 258 258">
	<defs>
		<style>.cls-1{fill:#47b4e7;}.cls-1,.cls-2,.cls-3,.cls-4,.cls-6{stroke:#fff;stroke-miterlimit:10;stroke-width:2px;}.cls-2{fill:#dfdb1f;}.cls-3{fill:#231f20;}.cls-4{fill:none;}.cls-5,.cls-6{fill:#fff;}</style>
	</defs>
	<g id="Circle">
		<path class="cls-1" d="M431,350.65a128.15,128.15,0,0,1-70.79,114.54l-1.15.56-1.64.79c-.66.31-1.32.62-2,.91l-.19.09-1.08.47c-1.7.74-3.48,1.48-5.33,2.19-1.1.43-2.19.83-3.26,1.2-1.83.64-3.67,1.25-5.53,1.8-1,.32-2.09.62-3.14.91a128,128,0,0,1-33.9,4.54q-3.69,0-7.32-.21a128,128,0,0,1-105.12-66.62.21.21,0,0,1,0-.06c-.11-.17-.2-.35-.3-.53q-2.67-5-4.9-10.15c-.73-1.7-1.42-3.41-2.08-5.15A128,128,0,1,1,431,350.65Z" transform="translate(-174 -221.65)"/>
		<path class="cls-2" d="M419.6,403.5a128.46,128.46,0,0,1-59.39,61.69l-1.15.56-1.64.79c-.66.31-1.32.62-2,.91l-.19.09-1.08.47c-1.7.74-3.48,1.48-5.33,2.19-1.1.43-2.19.83-3.26,1.2-1.83.64-3.67,1.25-5.53,1.8-1,.32-2.09.62-3.14.91a128,128,0,0,1-33.9,4.54q-3.69,0-7.32-.21a128,128,0,0,1-105.12-66.62.21.21,0,0,1,0-.06c-.11-.17-.2-.35-.3-.53q-2.67-5-4.9-10.15c-.73-1.7-1.42-3.41-2.08-5.15.25-2.5.51-4.59.76-6.31h0c.91-6,1.85-7.53,2.83-6.44,2,2.26,4.27,15.72,6.66,22.79,4.38-6.85,9.3-4.36,14.72-14.88.48-.92,1-1.94,1.44-3.08.17.95.35,1.86.52,2.73,4.47,22.29,9.26,20.06,14.32,2.6h0c1.12-3.85,2.25-8.44,3.39-13.67.17-.74.33-1.5.49-2.27.3-1.36.59-2.77.88-4.21,1.85-3.88,3.73-3.62,5.65-1.88,1.73,1.57,3.48,4.34,5.26,6.36,1.55,1.76,3.12,2.94,4.7,2.26l0,0a3.18,3.18,0,0,0,1-.67c1.3,8,2.61,6,3.93-1.94.12-.71.24-1.47.36-2.27.52-3.54,1.05-8,1.57-13a.69.69,0,0,0,.45,0,3.87,3.87,0,0,0,1.52-1.42c1.28-1.68,2.57-3.77,3.87-.15.06.17.12.35.18.55.41,0,.82-.54,1.23-1.33h0c.6-1.17,1.2-2.93,1.81-4.54,1-2.74,2.07-5,3.11-3.23.47-1.58.94-3.14,1.42-4.52.28-.83.56-1.59.85-2.26.8-1.93,1.62-3.07,2.44-2.67.52.25,1.05,1.14,1.57,2.87.18,1.1.37,2,.55,2.83.06.24.11.47.16.68,1,3.89,2,3.84,3,3.76s1.78-.15,2.67,2.37c.14,1.63.29,3.12.44,4.46h0c1.52,14.23,3.05,12.79,4.6,4.21.49-2.73,1-6.18,1.47-10.07,1.78-4.26,3.57,13.89,5.36,12.56.43-.31.84-1.68,1.27-4.65.36-2.19.73-4.18,1.09-5.95.18-.89.37-1.72.55-2.48.25-1,.49-1.93.74-2.71.53-1.65,1.05-2.71,1.58-3s.78-.11,1.18.51a.56.56,0,0,1,.05.08c.06.11.13.23.19.37a20.53,20.53,0,0,1,1.34,4.66c1.38,7.76,2.76,9.23,4.14,7.18.89-1.32,1.79-4.1,2.68-7.59.23,0,.46-.3.7-.79.06-.12.12-.26.18-.41,2-5,4-23.24,5.93-5.37,2.25-6.06,4.5-4.58,6.72-.27a9.85,9.85,0,0,1,.46-1.12h0c2.07-4.15,4.12,2.51,6.17,3.2,2.19,2.93,4.36-5.4,6.52,7.23.71,5.13,1.43-4.39,2.14-8.77.72,5.27,1.43-15.39,2.14-4.16a56.57,56.57,0,0,1,1-6.64c.77-3.09,1.54-2.27,2.3,1.94.29,1.61.59,3.73.88,6.32,1.4-2.5,2.79,2.59,4.17,7.92.69-9.81,1.38-2.77,2.07-1.35.68,19.64,1.37,17.33,2.05,13.61,1.36,10.29,2.71-10.75,4.05-2.93.38-2.49.75-4.7,1.13-6.26.89-3.71,1.77-3.74,2.65,5,0,.36.07.73.11,1.12s.07.82.11,1.25c0-.56.08-1.1.12-1.61v0c.17-2.42.35-4.34.53-5.83.77-6.54,1.53-5,2.3-2.14,1,15.48,1.95,8.31,2.91,5.25,1.93-4.49,3.83-.61,5.71,8.05,1.87-5.64,3.72-2.34,5.54,1,1.82.89,3.61.95,5.37,6.49.61,5.39,1.22,10.62,1.81,15.37l0,.26c2.88,22.66,5.66,34.39,8.36,1.74,3.27-24.19,6.4-7.47,9.4-2.54,3,15.95,5.84-10.3,8.54,7.19Q409.47,424.86,413,406C415.39,393.76,417.58,368.88,419.6,403.5Z" transform="translate(-174 -221.65)"/>
	</g>
	<g id="Human_2" data-name="Human 2">
		<path class="cls-3" d="M400.2,287.79c-2.69,3.44-5.35,2.2-9.39,5.4l-.6.5c-3.32,2.91-1.83,3.9-6.81,10-2.36,2.89-4.7,5.45-5.93,6.78h0c-.55.6-.88.93-.88.93-2.65,2.76-3.75,3.63-4.08,5.45a4.35,4.35,0,0,0-.08,1c0,.08,0,.18,0,.32v.06c.36,2.65,1.49,4,2.32,5.89,1.81,4.24-1,6.74,1.33,10.14l.21.28c.11.14.21.27.3.37a.34.34,0,0,1,.08.09c.11.11.17.19.19.2a14.91,14.91,0,0,1,2.32,3.91c1.64,3.94.84,6.06,2.76,9.62,1.59,2.94,2.07,2.17,3.78,5.6a24.57,24.57,0,0,1,2.43,9.65,28.86,28.86,0,0,1-.34,6.58,30.28,30.28,0,0,1-3.07,9,54.68,54.68,0,0,1-3.29,5.57c-2.69,4.14-3.64,4.79-5.57,8.06-.37.63-1,1.74-2.83,5.69-1.64,3.55-2.93,6.55-3.76,8.51l-.86,2.07c-2.44,5.92-5.88,11.18-9.67,18.78a104.85,104.85,0,0,0-5.34,14.22,11.52,11.52,0,0,0-.55,3.89,13,13,0,0,0,.55,3.11,20,20,0,0,0,1.12,2.67c.51,1.14.9,2.2,1.66,4.33.86,2.38,1.45,4.32,1.78,5.44.45,1.52.79,2.84,1.06,3.89-3.12,1.51-6.53,3-10.23,4.44-3.05,1.18-6,2.18-8.77,3.05-1.78-3.88-3.22-7.15-4.28-9.6-1.34-3.09-2.17-5.11-3.08-7.6a40.35,40.35,0,0,1-2.26-8.18c-.19-1.31-.28-2.44-.33-3.22a71.47,71.47,0,0,1,.22-8.11c.05-.85.08-1.28.11-1.85a105.61,105.61,0,0,1,1.21-10.8,76.29,76.29,0,0,1,1.91-7.9c1.56-5.66,2.05-6.05,3.48-11.25.28-1,1.27-4.69,2.18-9.53a53.56,53.56,0,0,0,1.14-7.5A32.75,32.75,0,0,0,339,376.58a28.75,28.75,0,0,0-3.18-6.92,24,24,0,0,0-5.22-6.14c-1.6-1.3-5-2.8-11.93-5.79-1-.42-2-.78-3.51-1.48-1.77-.82-2.34-1.19-4.27-2-1.24-.55-1.26-.49-2.8-1.15-1.33-.57-2.33-1-3.57-1.63s-4.19-2.21-5.63-2.42l-.28,0a16.78,16.78,0,0,1-1.92-.45,18.77,18.77,0,0,1-3-1.29c-.68-.32-3.16-1.5-6-2.55s-3.16-1-12.6-3.75c-3.26-1-4.3-1.3-5.27-1.68a23.62,23.62,0,0,1-4.73-2.29c-1.76-1.15-3.36-2.19-4.41-4.1-1.48-2.67-1-5.45-.69-7.29a14,14,0,0,1,4-7.8,11.26,11.26,0,0,1,4.34-2.75c2.71-.88,4.27,0,8.93.74,5.12.87,4.91.15,12.7,1.25a54.53,54.53,0,0,1,6.67,1.27c3.83,1,5.74,1.48,7,2.76a10.83,10.83,0,0,0,3,2.52,7.62,7.62,0,0,0,1.82.76,34.78,34.78,0,0,0,5.23.44c3.16.17,4.41.15,6.22.23,6,.24,8.59,1.7,10,.47,2.33-2.07-2.91-8.33-2.08-17.62a24.08,24.08,0,0,1,2.28-8.19c-.44-.25-1.11-.62-2-1-1.71-.87-2.59-1.19-4.05-1.89,0,0-1.43-.69-3.31-1.76C315.68,292,313,281.89,313,281.89c-2.09-7.92-5.12-19.37,1.36-25.44,4.43-4.15,11.16-3.77,13.62-3.63,2.69.15,7.74.44,11.45,3.91,6,5.6,2.78,14.16,7.18,16.07a3.07,3.07,0,0,0,2.36.05c2.07-.7,4.4-3,9.45-3.68,6.62-.88,7.67,2.41,15.44,2.27,7.55-.14,8.22-3.28,14.54-2.72,1.17.1,11,1.11,13.62,8.17A11.79,11.79,0,0,1,400.2,287.79Z" transform="translate(-174 -221.65)"/>
		<g id="Body_Parts" data-name="Body Parts">
			<path class="cls-4" d="M322.88,270.76c.71-.66,1.32-1.19,1.78-1.59s1-.84,1.57-1.25a4.74,4.74,0,0,1,1.63-.86,3,3,0,0,1,1.07-.12,2.9,2.9,0,0,1,1.26.4" transform="translate(-174 -221.65)"/>
			<path class="cls-4" d="M313.21,276.38a9.32,9.32,0,0,1,.86-1c.27-.28.5-.47.67-.62a8.71,8.71,0,0,1,1-.78,7.47,7.47,0,0,1,.93-.5,2.7,2.7,0,0,1,1.74-.25,4.62,4.62,0,0,1,.87.21" transform="translate(-174 -221.65)"/>
			<path class="cls-5" d="M314.82,277.8a2.71,2.71,0,0,1,.83-1.17,8.72,8.72,0,0,1,1-.83,4.61,4.61,0,0,1,1.12-.59,1.83,1.83,0,0,1,1.58.32,1.87,1.87,0,0,1-.69,1.46,5.26,5.26,0,0,1-1.15.54,8.71,8.71,0,0,1-1.27.3A2.59,2.59,0,0,1,314.82,277.8Z" transform="translate(-174 -221.65)"/>
			<path class="cls-5" d="M324.62,272.69a3.86,3.86,0,0,1,1.06-1.37,6.31,6.31,0,0,1,1.25-1,7.87,7.87,0,0,1,1.4-.68,4.79,4.79,0,0,1,.77-.17,1.33,1.33,0,0,1,1,.29l.16.33a1.32,1.32,0,0,1-.39,1,5.79,5.79,0,0,1-.61.5,7.16,7.16,0,0,1-1.39.68,6,6,0,0,1-1.53.41A3.88,3.88,0,0,1,324.62,272.69Z" transform="translate(-174 -221.65)"/>
			<path class="cls-6" d="M347.14,298.84a11,11,0,0,0,2.42-1.51,9,9,0,0,0,1.86-2,9.6,9.6,0,0,0,1-2.12,15.29,15.29,0,0,0,.91-3.52c.23-1.78,0-2.77.3-2.84s.64,1.58,2.21,2.9a6.81,6.81,0,0,0,2.22,1.18,8.66,8.66,0,0,0,3.4.4,10.74,10.74,0,0,0,2.89-.5,5.86,5.86,0,0,0,2.56-1.25c.73-.7.72-1.24,1.25-2.27a10.06,10.06,0,0,1,3.3-3.52,29,29,0,0,1,4.08-2.16c3.13-1.51.58-.32,4.8-2.35l6.13-2.92,1.05-.52a9,9,0,0,1,4.82.8,7.78,7.78,0,0,1,3.3,2.72,8,8,0,0,1,1.17,5.77,11.22,11.22,0,0,1-1.79,1.49,8.89,8.89,0,0,0-1.59,1.09,6,6,0,0,0-1.14,1.58,8.58,8.58,0,0,0-.73,1.71c-.26.72-.51,1.45-.77,2.16a15.1,15.1,0,0,1-.83,3.17,16.64,16.64,0,0,1-2,3.69c-.75,1.1-.83,1.05-3.24,4-1.35,1.66-1.58,2-2.38,2.89a12,12,0,0,1-2.79,2.55,7.4,7.4,0,0,1-2.12.94h0a5.31,5.31,0,0,1-1,.19,7.34,7.34,0,0,1-5.22-1.76c-1.15-1-1.71-2.21-2.84-4.71a22.48,22.48,0,0,1-1.72-4.9,20.81,20.81,0,0,1-.33-6v0c.06-.33.14-.84.41-1.87.33-1.21.73-2.33.84-2.67" transform="translate(-174 -221.65)"/>
			<path class="cls-4" d="M372.42,317.85a20.93,20.93,0,0,1-.38,6.62,22.11,22.11,0,0,1-.91,2.61,16.41,16.41,0,0,1-1.16,2.21" transform="translate(-174 -221.65)"/>
			<path class="cls-4" d="M328.48,325.94a45.2,45.2,0,0,0,6.4-.34c4.1-.52,5.19-1.23,8.79-1.84a41,41,0,0,1,11.25-.35,29.84,29.84,0,0,1,9.42,2.49,33.71,33.71,0,0,1,5.63,3.39A49.82,49.82,0,0,1,376.7,335" transform="translate(-174 -221.65)"/>
			<path class="cls-4" d="M330.07,299.65a46.34,46.34,0,0,1,2.49-5c.36-.62,1.07-1.71,2.5-3.89a20.47,20.47,0,0,1,1.34-1.85c.42-.5.67-.72,1-1.12a19.4,19.4,0,0,0,3.07-4.31c.09-.19.26-.63.6-1.5.74-1.9.82-2.25,1.14-2.94a11.42,11.42,0,0,1,1.61-2.44,13.69,13.69,0,0,1,5.14-3.74" transform="translate(-174 -221.65)"/>
			<path class="cls-4" d="M320.75,295a9.89,9.89,0,0,0,11.33-3c2.59-2.92,1.91-5,4.2-7.38a9.85,9.85,0,0,1,4.81-2.64" transform="translate(-174 -221.65)"/>
		</g>
	</g>
	<g id="Human_1" data-name="Human 1">
		<path class="cls-3" d="M314.53,425.14a26.6,26.6,0,0,1-1.52,5,13,13,0,0,1-1.94,3.82c-1.41,1.67-3.14,2.26-5.37,3a14.27,14.27,0,0,1-6.83.95,8.53,8.53,0,0,1-3.84-1.53,39.42,39.42,0,0,1-10.34-10.38c-2.41-3.64-3.95-6-4.95-7.58-1.38-2.17-1.67-2.7-1.67-2.7-1.81-3.62-2.61-3.22-3.88-5.25-3.85-6.13-3.85-10.21-5.17-10.19-1.92,0-3.56,8.56-4,10.65-.61,3.17-.85,4.44-1.47,6.95,0,.18-.08.36-.13.54-.19.78-.4,1.56-.62,2.37-1,3.52-1.51,3.3-2.35,6.58-.93,3.61-.91,10.31-.91,10.31,0,2.28,0,5.66.1,9.76.13,4.4.34,7.36.52,10.38.2,3.39.45,8,.61,13.65a128.17,128.17,0,0,1-70.25-59.7.21.21,0,0,1,0-.06c-.11-.17-.2-.35-.3-.53q-2.67-5-4.9-10.15c-.34-4.71-.92-8.8-1.32-11.46h0l0-.21c-.33-2.27-.64-4-.89-5.72a60.71,60.71,0,0,1-.68-6.49,49.42,49.42,0,0,1,.25-8.26c.09-.77.24-1.87.66-4.08,1.18-6.16,1.77-9.24,3.2-12.7a35.77,35.77,0,0,1,4.57-8.07,38.24,38.24,0,0,1,5.7-5.86,27.42,27.42,0,0,1,5.38-4,25.54,25.54,0,0,1,9.92-2.71,32.25,32.25,0,0,1,4.57-.16c3.45.06,5.84.29,7.77-1.67,1.25-1.27,1.42-3.24,1.82-5.93a13.36,13.36,0,0,0,.16-2.22c0-1,0-2.32-.05-4.65-.09-5.93,0-4-.11-6.84,0-.51,0-1,0-1.42-.17-5.92-.29-5.78-.27-8.17.06-4.73.08-7.1.91-9.74a20.83,20.83,0,0,1,5.34-8.52c7.09-6.85,16.89-6.26,19.43-6.08.71.05,1.25.11,1.57.14a29.18,29.18,0,0,1,24.66,20.09c2.18,6.66,1.31,12.24.46,17.82q-.14.87-.3,1.71a68,68,0,0,1-3.7,12.44c-.93,2.42-1.83,4.4-2.52,5.82l-.86,2.23v0l-1.1,2.86-.19.5a64.2,64.2,0,0,1,18.27,10.15c.54.44,1.09.9,1.62,1.37s1.25,1.12,1.86,1.72a48.75,48.75,0,0,1,8,10l.28.49c.7,1.19,1.32,2.38,1.88,3.55l.24.51v0c.28.59.54,1.17.78,1.76.44.88,1,2.05,1.64,3.44,1.12,2.48,1.92,4.55,2.57,6.33,1.15,3.09,2.62,7.27,4.43,13.16,1.41,4.59,2.13,6.89,2.44,8.59a94.69,94.69,0,0,1,1,10.6c.19,2.95.3,4.79.31,6.84v.18A31.69,31.69,0,0,1,314.53,425.14Z" transform="translate(-174 -221.65)"/>
		<path class="cls-3" d="M269.62,339.76l-2.71,7-.94,2.42a20.4,20.4,0,0,1-2.17,3.88c-1.15,1.6-1.76,1.94-3.08,3.88s-1,2.06-1.72,2.62c-1.66,1.42-4.37,1.34-6.27.69-2.07-.71-2-1.7-5-3.81-2.61-1.85-3.05-1.37-5.74-3.15a37.77,37.77,0,0,1-5.83-5.26A47.89,47.89,0,0,1,231,341.8a8.86,8.86,0,0,1-1.25-2.74,8.55,8.55,0,0,1-.23-2.63" transform="translate(-174 -221.65)"/>
		<g id="Body_Parts-2" data-name="Body Parts">
			<path class="cls-4" d="M242.22,321.47a7.65,7.65,0,0,1,4.34-1.37c1.6,0,2.79.64,5,1.83a30.06,30.06,0,0,1,3.66,2.28" transform="translate(-174 -221.65)"/>
			<path class="cls-4" d="M265.29,324a27,27,0,0,1,3-2.56c2.09-1.52,3.23-2.32,4.6-2.12a4,4,0,0,1,2.4,1.49" transform="translate(-174 -221.65)"/>
			<path class="cls-4" d="M287,406.84c.3-1.65.61-3.64.86-5.91.36-3.19.46-5.64.49-6.46.12-3.36-.05-4.7-.11-8.15,0-2.18,0-5.36.19-9.28V358.12" transform="translate(-174 -221.65)"/>
			<g id="Ear">
				<path class="cls-3" d="M230.37,310.68a5.21,5.21,0,0,0-5.27-1.9,4.75,4.75,0,0,0-2.92,2.34c-.66,1.39-.28,2.71.29,4.68a9.42,9.42,0,0,0,2.05,4.09c.7.76,1.1.88,2.44,2.18.8.77,1.4,1.45,1.8,1.91" transform="translate(-174 -221.65)"/>
			</g>
			<path class="cls-4" d="M208.89,355.27a6,6,0,0,0,1.82,2.28c1,.78,2.17,1,5.6,1.26,1.45.09,3.31.19,5.48.22a37,37,0,0,1,17.86,7.83l-15.24,14.21c-.93.81-1.72,1.45-2.28,1.88-.95.74-1.19.88-2.4,1.83-.87.69-1,.81-1.6,1.26s-1.11.78-1.93,1.32l-3.12,2a11.65,11.65,0,0,1-3.45,1.46c-.33.07-1,.17-1.69.26-.36,0-.8.08-1.31.11a7.75,7.75,0,0,1-1.37,0,6.14,6.14,0,0,1-1-.23,13.21,13.21,0,0,1-2.25-1c-.52-.26-1.29-.64-2.26-1.08" transform="translate(-174 -221.65)"/>
			<path class="cls-6" d="M228.83,358.46a39.64,39.64,0,0,1,6.85-.3,47.28,47.28,0,0,1,9.13,1.29,46.75,46.75,0,0,1,13.85,6c3.46,2.22,4.63,3.63,5.37,4.79a14.72,14.72,0,0,1,2.05,6.28,19.68,19.68,0,0,1-.57,7.77,23.72,23.72,0,0,1-2.17,5.59c-1.17,2.14-1.86,3.4-3.23,4.38-2.42,1.73-5.31,1.39-8.14,1.06a24.09,24.09,0,0,1-8.91-3,33.89,33.89,0,0,1-5.65-3.89,12.43,12.43,0,0,1-2.84-2.8c-1.16-1.71-.62-2.63-1.7-3.77-.69-.74-1.22-.74-3.82-1.71a25.35,25.35,0,0,1-4.18-1.76,10.93,10.93,0,0,1-3.88-5.48,15.76,15.76,0,0,1-1.14-6.05c0-1.72,0-3.14.91-4.57a7.16,7.16,0,0,1,2.81-2.4A13.47,13.47,0,0,1,228.83,358.46Z" transform="translate(-174 -221.65)"/>
			<path class="cls-6" d="M300.41,369.36a12.29,12.29,0,0,0,1.41-1.88,4.37,4.37,0,0,0,.68-1.71c.15-1-.1-1.83-1-3.88-.74-1.64-1-2.05-1.37-2.86-.93-2-.77-2.91-1.37-5.25a28.59,28.59,0,0,0-2.63-6.39,28.08,28.08,0,0,0-3.2-5.14,28.63,28.63,0,0,0-5.48-5.14,19.13,19.13,0,0,0-4-2.62c-4.2-1.75-9.4-.48-12.9,2.17-1.15.87-5,3.76-4.57,7.42,0,.16.37,3.06,2.28,4,.95.47,1.68.16,3.09.92a5.44,5.44,0,0,1,1.71,1.37c.92,1.14.72,2,1.24,3.85a14.58,14.58,0,0,0,1.86,3.82,17.63,17.63,0,0,0,3,3.74c2,1.88,2.63,1.47,3.88,3,.57.69.8,1.21,2.06,4.68,1.76,4.88,1.74,5.06,2.17,5.37,2.54,1.85,7.72-1.35,10.16-2.85a15.5,15.5,0,0,0,3-2.58" transform="translate(-174 -221.65)"/>
		</g>
		<path class="cls-5" d="M243.56,325.68a4.88,4.88,0,0,1,2.38-1,9.85,9.85,0,0,1,2.33-.44,3.3,3.3,0,0,1,2.25.53l1.07.8a4.38,4.38,0,0,1,1.06.95,4.24,4.24,0,0,1-1.22.74l-1.2.6a3.34,3.34,0,0,1-2.3.12,9.71,9.71,0,0,1-2.21-.86A4.83,4.83,0,0,1,243.56,325.68Z" transform="translate(-174 -221.65)"/>
		<path class="cls-5" d="M264.94,327.08a5.31,5.31,0,0,1,2.84-2.63,6,6,0,0,1,1.82-.24,3.91,3.91,0,0,1,2.07.39,3.84,3.84,0,0,1-1.3,1.66,6,6,0,0,1-1.52,1,5.32,5.32,0,0,1-1.8.32,5.21,5.21,0,0,1-2.08-.42Z" transform="translate(-174 -221.65)"/>
	</g>
</svg>