<svg id="_x31__px" height="512" viewBox="0 0 24 24" width="512" xmlns="http://www.w3.org/2000/svg">
    <path fill="#f5f5f5" d="m2.961 9.001c-.199 0-.401-.031-.599-.095-.592-.19-1.063-.651-1.26-1.233-.28-.827.026-1.735.745-2.208 7.43-4.89 15.476-4.632 20.999.671.174.167.204.435.071.636-.133.203-.392.28-.613.185-6.17-2.623-13.158-1.978-18.236 1.685-.328.237-.713.359-1.107.359zm9.595-6.02c-3.296 0-6.791 1.103-10.159 3.319-.339.224-.482.657-.348 1.053.097.288.322.506.618.601.283.091.582.046.816-.123 4.593-3.314 10.658-4.291 16.384-2.767-2.202-1.386-4.695-2.083-7.311-2.083z"/>
    <path fill="#f5f5f5" d="m12 19c-3.957 0-7.948-2.07-11.861-6.154-.191-.2-.185-.516.015-.707s.515-.185.707.015c7.436 7.759 14.843 7.759 22.278 0 .192-.2.507-.206.707-.015.199.191.206.507.015.707-3.913 4.084-7.904 6.154-11.861 6.154z"/>
    <path fill="#f5f5f5" d="m12 22c-.276 0-.5-.224-.5-.5v-3c0-.276.224-.5.5-.5s.5.224.5.5v3c0 .276-.224.5-.5.5z"/>
    <path fill="#f5f5f5" d="m23.5 17c-.128 0-.256-.049-.354-.146l-2.05-2.05c-.195-.195-.195-.512 0-.707s.512-.195.707 0l2.05 2.05c.195.195.195.512 0 .707-.097.097-.225.146-.353.146z"/>
    <path fill="#f5f5f5" d="m.5 17c-.128 0-.256-.049-.354-.146-.195-.195-.195-.512 0-.707l2.05-2.05c.195-.195.512-.195.707 0s.195.512 0 .707l-2.05 2.05c-.097.097-.225.146-.353.146z"/>
    <path fill="#f5f5f5" d="m18.5 20.5c-.173 0-.341-.089-.434-.25l-1.5-2.598c-.138-.239-.056-.545.183-.683.238-.139.544-.057.683.183l1.5 2.598c.138.239.056.545-.183.683-.078.046-.164.067-.249.067z"/>
    <path fill="#f5f5f5" d="m5.5 20.5c-.085 0-.171-.021-.25-.067-.239-.138-.321-.444-.183-.683l1.5-2.598c.138-.239.444-.322.683-.183.239.138.321.444.183.683l-1.5 2.598c-.093.16-.261.25-.433.25z"/>
</svg>